<svg width="118" height="88" viewBox="0 0 118 88" fill="none" xmlns="http://www.w3.org/2000/svg">
<mask id="path-1-outside-1_6100_3553" maskUnits="userSpaceOnUse" x="-1" y="-4" width="122" height="95" fill="black">
<rect fill="white" x="-1" y="-4" width="122" height="95"/>
<path d="M25.25 88C11.25 88 0.250001 79.25 3.25 58C7.25 28.5 33.5 3.99999 58 0.499995L54.5 27C46.25 29 40 33.25 35.5 41C46.25 44.25 52.5 54 51 66.25C49.25 78.5 38.5 88 25.25 88ZM84.25 88C70.25 88 59.25 79.25 62.25 58C66.25 28.5 92.5 3.99999 117.25 0.499995L113.5 27C105.25 29 99 33.25 94.5 41C105.25 44.25 111.75 54 110 66.25C108.25 78.5 97.5 88 84.25 88Z"/>
</mask>
<path d="M3.25 58L6.22054 58.4194L6.22169 58.4112L6.2228 58.4031L3.25 58ZM58 0.499994L60.9742 0.892809L61.4922 -3.02935L57.5757 -2.46985L58 0.499994ZM54.5 27L55.2068 29.9155L57.205 29.4311L57.4742 27.3928L54.5 27ZM35.5 41L32.9056 39.4936L31.0009 42.7739L34.6318 43.8716L35.5 41ZM51 66.25L53.9698 66.6743L53.9741 66.6445L53.9778 66.6146L51 66.25ZM62.25 58L65.2206 58.4194L65.2217 58.4112L65.2228 58.4031L62.25 58ZM117.25 0.499994L120.22 0.920334L120.779 -3.02894L116.83 -2.47045L117.25 0.499994ZM113.5 27L114.207 29.9155L116.185 29.4359L116.47 27.4203L113.5 27ZM94.5 41L91.9056 39.4936L90.0009 42.7739L93.6318 43.8716L94.5 41ZM110 66.25L112.97 66.6743L110 66.25ZM25.25 85C18.8446 85 13.5522 83.0082 10.159 79.0237C6.77043 75.0447 4.7954 68.5141 6.22054 58.4194L0.279458 57.5806C-1.2954 68.7359 0.729575 77.2053 5.591 82.9138C10.4478 88.6168 17.6554 91 25.25 91V85ZM6.2228 58.4031C8.12146 44.4005 15.3247 31.4757 25.0718 21.6083C34.8353 11.7242 46.95 5.10902 58.4243 3.46984L57.5757 -2.46985C44.55 -0.60903 31.2897 6.77575 20.8032 17.3917C10.3003 28.0243 2.37855 42.0995 0.277205 57.5969L6.2228 58.4031ZM55.0258 0.10718L51.5258 26.6072L57.4742 27.3928L60.9742 0.892809L55.0258 0.10718ZM53.7932 24.0844C44.8146 26.2611 37.8495 30.9792 32.9056 39.4936L38.0944 42.5064C42.1505 35.5208 47.6854 31.7389 55.2068 29.9155L53.7932 24.0844ZM34.6318 43.8716C43.8783 46.6671 49.3588 54.9698 48.0222 65.8854L53.9778 66.6146C55.6412 53.0302 48.6217 41.8329 36.3682 38.1284L34.6318 43.8716ZM48.0302 65.8257C46.4961 76.5644 37.041 85 25.25 85V91C39.959 91 52.004 80.4356 53.9698 66.6743L48.0302 65.8257ZM84.25 85C77.8446 85 72.5522 83.0082 69.159 79.0237C65.7704 75.0447 63.7954 68.5141 65.2206 58.4194L59.2795 57.5806C57.7046 68.7359 59.7296 77.2053 64.591 82.9138C69.4478 88.6168 76.6554 91 84.25 91V85ZM65.2228 58.4031C67.1214 44.4009 74.3241 31.4775 84.0998 21.6115C93.8909 11.7301 106.067 5.11126 117.67 3.47044L116.83 -2.47045C103.683 -0.611271 90.3591 6.76988 79.8377 17.3884C69.3009 28.0225 61.3786 42.0991 59.2772 57.5969L65.2228 58.4031ZM114.28 0.0796547L110.53 26.5797L116.47 27.4203L120.22 0.920334L114.28 0.0796547ZM112.793 24.0844C103.815 26.2611 96.8495 30.9792 91.9056 39.4936L97.0944 42.5064C101.151 35.5208 106.685 31.7389 114.207 29.9155L112.793 24.0844ZM93.6318 43.8716C102.931 46.6829 108.575 55.0086 107.03 65.8257L112.97 66.6743C114.925 52.9914 107.569 41.817 95.3682 38.1284L93.6318 43.8716ZM107.03 65.8257C105.496 76.5644 96.041 85 84.25 85V91C98.959 91 111.004 80.4356 112.97 66.6743L107.03 65.8257Z" fill="#534D75" mask="url(#path-1-outside-1_6100_3553)"/>
</svg>
