<svg width="484" height="154" viewBox="0 0 484 154" fill="none" xmlns="http://www.w3.org/2000/svg">
<path d="M204.68 280.039C204.68 231.772 218.364 186.404 242.267 147.077C233.516 132.518 223.415 118.926 212.138 106.301C177.664 156.441 157.52 216.065 157.52 280.039C157.52 397.959 225.588 501.139 326.662 556.958C346.865 550.433 366.011 541.614 383.982 530.861C278.679 489.238 204.68 392.462 204.68 280.039Z" stroke="#534D75" stroke-width="4"/>
<path d="M272.513 106.301C302.348 73.0148 340.522 46.4948 384.1 29.2781C366.129 18.5251 346.983 9.64487 326.78 3.12061C295.065 20.6395 266.581 42.8098 242.443 68.6652C253.367 80.4452 263.469 92.95 272.572 106.301H272.513Z" stroke="#534D75" stroke-width="3"/>
<path d="M357.672 280.039C357.672 199.634 405.478 131.613 470.727 109.925C460.86 95.9707 449.878 82.9222 437.838 71.0215C363.251 104.791 310.57 185.74 310.57 280.039C310.57 374.339 363.251 455.288 437.838 489.057C449.878 477.096 460.919 464.108 470.727 450.153C405.478 428.466 357.672 360.445 357.672 280.039Z" stroke="#534D75" stroke-width="4"/>
<path d="M13.6318 109.925C78.8808 131.613 126.687 199.634 126.687 280.039C126.687 360.445 78.8808 428.466 13.6318 450.153C23.4985 464.108 34.481 477.157 46.5206 489.057C102.901 463.564 146.773 411.068 164.861 346.188C160.104 324.864 157.52 302.754 157.52 280.039C157.52 257.325 160.104 235.336 164.861 214.012C146.831 149.131 102.96 96.5748 46.5206 71.0215C34.481 82.9826 23.4397 95.9707 13.6318 109.925Z" stroke="#534D75" stroke-width="4"/>
<path d="M319.497 213.77C314.916 193.17 308.162 172.993 299.235 153.481C269.812 88.9631 219.656 36.9503 157.931 3C137.669 9.52426 118.465 18.3441 100.493 29.1574C169.501 56.3419 226.175 107.449 256.597 174.141C271.926 207.668 279.678 243.31 279.678 280.1C279.678 328.307 266.053 373.614 242.208 412.941C250.959 427.379 261.002 441.031 272.337 453.657C294.537 421.338 310.805 385.092 319.497 346.249C313.683 325.347 310.511 303.116 310.511 280.1C310.511 257.084 313.683 234.792 319.497 213.83V213.77Z" stroke="#534D75" stroke-width="4"/>
</svg>
